<?xml version="1.0" encoding="UTF-8" standalone="no"?>
<!-- Generator: Adobe Illustrator 15.0.2, SVG Export Plug-In . SVG Version: 6.00 Build 0)  -->

<svg
   xmlns:dc="http://purl.org/dc/elements/1.1/"
   xmlns:cc="http://creativecommons.org/ns#"
   xmlns:rdf="http://www.w3.org/1999/02/22-rdf-syntax-ns#"
   xmlns:svg="http://www.w3.org/2000/svg"
   xmlns="http://www.w3.org/2000/svg"
   xmlns:sodipodi="http://sodipodi.sourceforge.net/DTD/sodipodi-0.dtd"
   xmlns:inkscape="http://www.inkscape.org/namespaces/inkscape"
   version="1.1"
   id="Layer_1"
   x="0px"
   y="0px"
   width="1024px"
   height="1024px"
   viewBox="0 0 1024 1024"
   enable-background="new 0 0 1024 1024"
   xml:space="preserve"
   inkscape:version="0.91 r13725"
   sodipodi:docname="computer_blue.svg"><sodipodi:namedview
     pagecolor="#ffffff"
     bordercolor="#666666"
     borderopacity="1"
     objecttolerance="10"
     gridtolerance="10"
     guidetolerance="10"
     inkscape:pageopacity="0"
     inkscape:pageshadow="2"
     inkscape:window-width="640"
     inkscape:window-height="480"
     id="namedview4590"
     showgrid="false"
     inkscape:zoom="0.87792969"
     inkscape:cx="512"
     inkscape:cy="512"
     inkscape:window-x="94"
     inkscape:window-y="43"
     inkscape:window-maximized="0"
     inkscape:current-layer="Layer_1" /><metadata
     id="metadata4594"><rdf:RDF><cc:Work
         rdf:about=""><dc:format>image/svg+xml</dc:format><dc:type
           rdf:resource="http://purl.org/dc/dcmitype/StillImage" /><dc:title></dc:title></cc:Work></rdf:RDF></metadata><defs
     id="defs4592" /><g
     id="g4584"><path
       d="M1018,930.6L997,856.4C982.4,805,927,763,873.6,763H148c-53.4,0-108.6,42-122.4,93.8L5.8,929.6   C-8,981.2,24.2,1023.4,77.6,1023.4l869.6,0.6C1000.6,1024.2,1032.4,982.2,1018,930.6z"
       fill="#0000ff"
       id="path4586" /><path
       d="M65.8,706h892.4c23.399,0,42.2-18.8,42.2-42.2V42.2C1000.4,19,981.6,0,958.2,0H65.8C42.4,0,23.6,19,23.6,42.2v621.6   C23.6,687.2,42.4,706.2,65.8,706z M108,84.6h808v537H108V84.6z"
       fill="#0000ff"
       id="path4588" /></g></svg>